<svg width="61" height="62" viewBox="0 0 61 62" fill="none" xmlns="http://www.w3.org/2000/svg">
<rect x="1.5" y="1.5" width="58" height="59" rx="10.5" stroke="white" stroke-width="3"/>
<g clip-path="url(#clip0_1_2)">
<path d="M32 31.56C31.44 31.56 30.96 31.36 30.56 30.96C30.1867 30.5867 30 30.1333 30 29.6C30 29.0667 30.1867 28.6 30.56 28.2C30.96 27.8 31.44 27.6 32 27.6C32.5333 27.6 32.9867 27.8 33.36 28.2C33.76 28.6 33.96 29.0667 33.96 29.6C33.96 30.1333 33.76 30.5867 33.36 30.96C32.9867 31.36 32.5333 31.56 32 31.56ZM32.4 42.76C30.5333 42.76 28.7467 42.5467 27.04 42.12C25.36 41.6933 23.8667 41.0267 22.56 40.12C21.28 39.24 20.2667 38.12 19.52 36.76C18.7733 35.4 18.4 33.8 18.4 31.96C18.4 30.4133 18.6267 28.9333 19.08 27.52C19.5333 26.1333 20.1867 24.8267 21.04 23.6C21.92 22.3467 22.9867 21.2 24.24 20.16C25.4933 19.12 26.92 18.2 28.52 17.4C30.12 16.5733 31.8667 15.88 33.76 15.32L33.32 15.84C32.6267 15.6267 31.92 15.4 31.2 15.16C30.48 14.8933 29.7333 14.6533 28.96 14.44C28.1867 14.2 27.36 14.0133 26.48 13.88C25.6 13.7467 24.6533 13.68 23.64 13.68C22.84 13.68 22.1333 13.7467 21.52 13.88C20.9333 14.0133 20.3733 14.1467 19.84 14.28L19.28 11.32C19.9733 11.0267 20.7467 10.8 21.6 10.64C22.48 10.4533 23.36 10.36 24.24 10.36C25.4667 10.36 26.56 10.48 27.52 10.72C28.48 10.9333 29.3867 11.2 30.24 11.52C31.12 11.84 32.04 12.1733 33 12.52C33.96 12.84 35.0267 13.12 36.2 13.36C37.4 13.5733 38.8133 13.6933 40.44 13.72H40.8L40.88 17C39.6 17 38.24 17.1467 36.8 17.44C35.36 17.7333 33.92 18.16 32.48 18.72C31.0667 19.28 29.7067 19.9733 28.4 20.8C27.0933 21.6267 25.9333 22.5867 24.92 23.68C23.9333 24.7467 23.1467 25.9333 22.56 27.24C21.9733 28.5733 21.68 30.0133 21.68 31.56C21.68 32.9467 21.9733 34.1333 22.56 35.12C23.1467 36.1333 23.9467 36.96 24.96 37.6C26 38.24 27.1867 38.7067 28.52 39C29.88 39.2933 31.3067 39.44 32.8 39.44C34.1067 39.44 35.44 39.2933 36.8 39C38.1867 38.7333 39.5333 38.3467 40.84 37.84L41.96 40.56C40.4133 41.3067 38.8267 41.8533 37.2 42.2C35.5733 42.5733 33.9733 42.76 32.4 42.76Z" fill="white"/>
</g>
<rect x="1.5" y="1.5" width="58" height="50" rx="10.5" stroke="white" stroke-width="3"/>
<defs>
<clipPath id="clip0_1_2">
<rect width="61" height="53" rx="12" fill="white"/>
</clipPath>
</defs>
</svg>
