<svg width="30" height="30" viewBox="0 0 30 30" fill="none" xmlns="http://www.w3.org/2000/svg">
<g clip-path="url(#clip0_32_2)">
<path d="M15 0C23.2843 0 30 6.71573 30 15C29.9998 23.2841 23.2841 30 15 30C6.71585 30 0.000203752 23.2841 0 15C0 6.71573 6.71573 0 15 0ZM7.45117 22.3906H11.0352V11.6074H7.45117V22.3906ZM19.835 11.3535C17.9301 11.3535 17.08 12.4016 16.6035 13.1348V13.1709H16.5801C16.5865 13.1594 16.5963 13.1468 16.6035 13.1348V11.6074H13.0176C13.0657 12.6201 13.0176 22.3791 13.0176 22.3906H16.6035V16.3682C16.6035 16.0449 16.6273 15.7246 16.7217 15.4941C16.9816 14.8492 17.5708 14.1836 18.5615 14.1836C19.8594 14.1838 20.3769 15.1726 20.377 16.6211V22.3906H23.9619V16.207C23.9619 12.8954 22.1939 11.3535 19.835 11.3535ZM9.2666 6.40918C8.04029 6.4092 7.23754 7.21393 7.2373 8.27148C7.2373 9.30682 8.01701 10.1357 9.21973 10.1357H9.24316C10.4936 10.1356 11.2705 9.30673 11.2705 8.27148C11.2465 7.21393 10.4932 6.40918 9.2666 6.40918Z" fill="white"/>
</g>
<defs>
<clipPath id="clip0_32_2">
<rect width="30" height="30" fill="white"/>
</clipPath>
</defs>
</svg>
