<?xml version="1.0" encoding="UTF-8"?>
<svg xmlns="http://www.w3.org/2000/svg" xmlns:xlink="http://www.w3.org/1999/xlink" width="124px" height="124px" viewBox="0 0 124 124" version="1.1">
<g id="surface1">
<path style=" stroke:none;fill-rule:nonzero;fill:rgb(0%,0%,0%);fill-opacity:1;" d="M 77.5 34.875 L 85.25 34.875 L 85.25 42.625 L 77.5 42.625 Z M 77.5 34.875 "/>
<path style=" stroke:none;fill-rule:nonzero;fill:rgb(0%,0%,0%);fill-opacity:1;" d="M 77.5 96.875 L 65.875 96.875 L 65.875 104.625 L 77.5 104.625 C 81.78125 104.625 85.25 101.15625 85.25 96.875 L 85.25 50.375 L 77.5 50.375 Z M 77.5 96.875 "/>
<path style=" stroke:none;fill-rule:nonzero;fill:rgb(0%,0%,0%);fill-opacity:1;" d="M 54.25 89.125 L 38.75 89.125 C 34.46875 89.125 31 85.65625 31 81.375 L 31 73.625 L 38.75 73.625 L 38.75 81.375 L 54.25 81.375 L 54.25 34.875 L 62 34.875 L 62 81.375 C 62 85.65625 58.53125 89.125 54.25 89.125 Z M 54.25 89.125 "/>
</g>
</svg>
